<?xml version="1.0" encoding="utf-8"?>
<svg version="1.1" xmlns:xlink="http://www.w3.org/1999/xlink" width="375px" height="170px" xmlns="http://www.w3.org/2000/svg">
  <g transform="matrix(1 0 0 1 -602 -145 )">
    <path d="M 602 145  L 977 145  L 977 315  L 602 315  L 602 145  " fill-rule="nonzero" fill="#cccccc" stroke="none" />
    <path d="M 614 157  L 965 157  L 965 303  L 614 303  L 614 157  " fill-rule="nonzero" fill="#ffffff" stroke="none" />
    <path d="M 809.75 196  C 802.61 196  797 190.39  797 183.25  C 797 176.11  802.61 170.5  809.75 170.5  C 816.89 170.5  822.5 176.11  822.5 183.25  C 822.5 190.39  816.89 196  809.75 196  " fill-rule="nonzero" fill="#cccccc" stroke="none" />
    <path d="M 619 299  L 619 223.65  L 704.5 189.4  L 824.2 261.736  L 892.6 209.95  L 961 261.736  L 961 299  L 619 299  " fill-rule="nonzero" fill="#169bd5" stroke="none" />
  </g>
</svg>