<?xml version="1.0" encoding="utf-8"?>
<svg version="1.1" xmlns:xlink="http://www.w3.org/1999/xlink" width="16px" height="16px" xmlns="http://www.w3.org/2000/svg">
  <g transform="matrix(1 0 0 1 -937 -115 )">
    <path d="M 945 115  C 949.48 115  953 118.52  953 123  C 953 127.48  949.48 131  945 131  C 940.52 131  937 127.48  937 123  C 937 118.52  940.52 115  945 115  Z " fill-rule="nonzero" fill="#ffffff" stroke="none" fill-opacity="0" />
    <path d="M 945 115.5  C 949.2 115.5  952.5 118.8  952.5 123  C 952.5 127.2  949.2 130.5  945 130.5  C 940.8 130.5  937.5 127.2  937.5 123  C 937.5 118.8  940.8 115.5  945 115.5  Z " stroke-width="1" stroke="#000000" fill="none" />
  </g>
</svg>